<svg version="1.1" xmlns="http://www.w3.org/2000/svg" xmlns:xlink="http://www.w3.org/1999/xlink" width="64.16541" height="51.41602" viewBox="0,0,64.16541,51.41602"><g transform="translate(-207.9173,-154.29199)"><g stroke-miterlimit="10"><g><g><path d="M208.9173,172.78309c0,-4.4667 0,-10.56133 0,-12.98639c0,-2.00507 2.27517,-4.50471 4.71945,-4.50471c6.89455,0 40.16734,0 52.5543,0c2.90328,0 4.6592,2.19566 4.6592,5.11345c0,4.58851 0,10.96285 0,13.39222c0,1.88858 -2.0008,4.17909 -5.26794,4.17909c-13.19061,0 -47.02291,0 -53.16304,0c-1.8755,0 -3.50199,-2.24119 -3.50199,-5.19364z" fill="#2c6394" stroke="#000000" stroke-width="2"/><text transform="translate(211.65105,170.44273) scale(0.31736,0.31736)" font-size="40" xml:space="preserve" fill="#000000" stroke="none" stroke-width="1" font-family="Sans Serif" font-weight="normal" text-anchor="start"><tspan x="0" dy="0">Edit Time</tspan></text></g><path d="M209.14974,199.51435c0,-4.4667 0,-10.56133 0,-12.98639c0,-2.00507 2.27517,-4.50471 4.71945,-4.50471c6.89455,0 40.16734,0 52.5543,0c2.90328,0 4.6592,2.19566 4.6592,5.11345c0,4.58851 0,10.96285 0,13.39222c0,1.88858 -2.0008,4.17909 -5.26794,4.17909c-13.19061,0 -47.02291,0 -53.16304,0c-1.8755,0 -3.50199,-2.24119 -3.50199,-5.19364z" fill="#2c6394" stroke="#000000" stroke-width="2"/><text transform="translate(211.65105,197.03227) scale(0.29043,0.29043)" font-size="40" xml:space="preserve" fill="#000000" stroke="none" stroke-width="1" font-family="Sans Serif" font-weight="normal" text-anchor="start"><tspan x="0" dy="0">Edit Name</tspan></text></g></g></g></svg>