<svg version="1.1" xmlns="http://www.w3.org/2000/svg" xmlns:xlink="http://www.w3.org/1999/xlink" width="251.33333" height="294.30146" viewBox="0,0,251.33333,294.30146"><g transform="translate(-114.16668,-29.94855)"><g stroke-miterlimit="10"><path d="M117.25002,300c0,-59.8625 0,-225.69524 0,-250.5c0,-6.10551 5.47843,-11 12,-11c23.38638,0 163.06242,0 214.5,0c11.83603,0 19,6.65615 19,14.5c0,27.48462 0,188.2371 0,247c0,13.40286 -9.45162,21.5 -19.5,21.5c-27.68516,0 -158.58396,0 -207.5,0c-11.52578,0 -18.5,-8.09182 -18.5,-21.5z" fill="#212121" stroke="#000000" stroke-width="5.5"/><path d="M116.91669,73.5c0,0 0,-15.0368 0,-21.5c0,-5.30777 6.78948,-14.5 14.53825,-14.5c26.34193,0 175.77835,0 219.26047,0c7.51743,0 11.86795,4.63516 11.86795,8.16667c0,6.5196 0,27.83334 0,27.83334z" fill="#000000" stroke="#000000" stroke-width="5.5"/><text transform="translate(122.58335,66.22624) scale(0.83397,0.83397)" font-size="40" xml:space="preserve" fill="#afafaf" stroke="none" stroke-width="1" font-family="Sans Serif" font-weight="normal" text-anchor="start"><tspan x="0" dy="0">Login</tspan></text><path d="M133.9633,124.90873c0,-3.20268 0,-7.57261 0,-9.31141c0,-1.43766 2.64769,-3.22994 5.49218,-3.22994c8.02341,0 46.74405,0 61.15917,0c3.37864,0 5.42207,1.57432 5.42207,3.66641c0,3.29002 0,7.86051 0,9.6024c0,1.35414 -2.3284,2.99646 -6.13047,2.99646c-15.35034,0 -54.72211,0 -61.86757,0c-2.18258,0 -4.07538,-1.60696 -4.07538,-3.72391z" fill="#2c6394" stroke="#000000" stroke-width="2"/><text transform="translate(139.73183,124.12699) scale(0.31436,0.31436)" font-size="40" xml:space="preserve" fill="#000000" stroke="none" stroke-width="1" font-family="Sans Serif" font-weight="normal" text-anchor="start"><tspan x="0" dy="0">Username</tspan></text><path d="M134.79663,223.90873c0,-3.20268 0,-7.57261 0,-9.31141c0,-1.43766 2.47626,-3.22994 5.13657,-3.22994c7.5039,0 43.71743,0 57.19919,0c3.15988,0 5.07099,1.57432 5.07099,3.66641c0,3.29002 0,7.86051 0,9.6024c0,1.35414 -2.17764,2.99646 -5.73353,2.99646c-14.35643,0 -51.17892,0 -57.86172,0c-2.04126,0 -3.8115,-1.60696 -3.8115,-3.72391z" fill="#2c6394" stroke="#000000" stroke-width="2"/><text transform="translate(140.23183,223.12699) scale(0.31436,0.31436)" font-size="40" xml:space="preserve" fill="#000000" stroke="none" stroke-width="1" font-family="Sans Serif" font-weight="normal" text-anchor="start"><tspan x="0" dy="0">Password</tspan></text><path d="M326.75,61.72222c0,-3.95666 0,-8.60669 0,-10.88889c0,-2.64097 3.8893,-6.33333 6.63889,-6.33333c2.78044,0 7.5879,0 11.88889,0c2.67539,0 5.97222,2.85747 5.97222,6.33333c0,3.84697 0,9.00698 0,11.33333c0,2.80977 -1.9597,6.66667 -5.41667,6.66667c-4.4762,0 -10.93647,-0.33333 -13.44444,-0.33333c-2.43038,0 -5.63889,-3.08728 -5.63889,-6.77778z" fill="#ff0000" stroke="none" stroke-width="none"/><path d="M362.94444,88.83333v-0.22222h0.11111v0.22222z" fill="#ff0000" stroke="none" stroke-width="0"/><text transform="translate(332.94444,62.72222) scale(0.5,0.5)" font-size="40" xml:space="preserve" fill="#ffffff" stroke="none" stroke-width="1" font-family="Sans Serif" font-weight="normal" text-anchor="start"><tspan x="0" dy="0">X</tspan></text></g></g></svg>